<?xml version="1.0" encoding="UTF-8"?>
<!DOCTYPE svg PUBLIC "-//W3C//DTD SVG 1.1//EN" "http://www.w3.org/Graphics/SVG/1.1/DTD/svg11.dtd">
<!-- Creator: CorelDRAW 2020 (64-Bit) -->
<svg xmlns="http://www.w3.org/2000/svg" xml:space="preserve" width="297mm" height="210mm" version="1.1" style="shape-rendering:geometricPrecision; text-rendering:geometricPrecision; image-rendering:optimizeQuality; fill-rule:evenodd; clip-rule:evenodd"
viewBox="0 0 29700 21000"
 xmlns:xlink="http://www.w3.org/1999/xlink"
 xmlns:xodm="http://www.corel.com/coreldraw/odm/2003">
 <defs>
  <style type="text/css">
   <![CDATA[
    .str0 {stroke:#FEFEFE;stroke-width:17.64;stroke-miterlimit:2.61313}
    .fil7 {fill:#2A478A}
    .fil2 {fill:#757475;fill-rule:nonzero}
    .fil0 {fill:#E62129;fill-rule:nonzero}
    .fil1 {fill:#2A478A;fill-rule:nonzero}
    .fil4 {fill:url(#id0)}
    .fil3 {fill:url(#id1)}
    .fil5 {fill:url(#id2)}
    .fil6 {fill:url(#id3);fill-rule:nonzero}
   ]]>
  </style>
  <linearGradient id="id0" gradientUnits="userSpaceOnUse" x1="16310.72" y1="4828.2" x2="16310.72" y2="5661.01">
   <stop offset="0" style="stop-opacity:1; stop-color:#E62129"/>
   <stop offset="1" style="stop-opacity:1; stop-color:#AE2F33"/>
  </linearGradient>
  <linearGradient id="id1" gradientUnits="userSpaceOnUse" x1="12573.84" y1="4252.11" x2="12573.84" y2="7697.38">
   <stop offset="0" style="stop-opacity:1; stop-color:#2C468A"/>
   <stop offset="1" style="stop-opacity:1; stop-color:#2F385B"/>
  </linearGradient>
  <linearGradient id="id2" gradientUnits="userSpaceOnUse" x1="14849.65" y1="5400.64" x2="14849.65" y2="7797.8">
   <stop offset="0" style="stop-opacity:1; stop-color:#F08519"/>
   <stop offset="1" style="stop-opacity:1; stop-color:#FFF000"/>
  </linearGradient>
  <radialGradient id="id3" gradientUnits="userSpaceOnUse" gradientTransform="matrix(1.20695 -0 -0 1.20695 -2952 -1393)" cx="14264.83" cy="6730.9" r="2489.3" fx="14264.83" fy="6730.9">
   <stop offset="0" style="stop-opacity:1; stop-color:#62C3D0"/>
   <stop offset="1" style="stop-opacity:1; stop-color:#108DC9"/>
  </radialGradient>
 </defs>
 <g id="Layer_x0020_1">
  <metadata id="CorelCorpID_0Corel-Layer"/>
  <g id="_1841472326048">
   <g>
    <g>
     <path class="fil0" d="M5362.42 12176.86l87.03 0c107.49,0 181.51,-11.9 221.3,-35.34 39.8,-23.8 59.89,-64.34 59.89,-122.73 0,-60.26 -18.6,-102.29 -56.17,-126.84 -37.19,-24.17 -110.09,-36.45 -218.32,-36.45l-93.73 0 0 321.36zm-403.18 957.74l0 -1595.24 437.02 0c180.02,0 306.11,5.95 377.52,17.48 71.41,11.53 133.15,31.61 184.85,59.88 58.77,32.73 103.4,76.62 134.27,131.29 30.87,55.05 46.5,118.28 46.5,190.06 0,91.13 -23.06,162.91 -69.18,216.47 -46.12,53.56 -119.77,93.73 -220.56,121.63 113.07,8.55 201.59,48.35 265.56,119.02 63.97,71.04 95.96,165.51 95.96,284.16 0,84.8 -17.85,159.56 -53.93,224.28 -36.08,64.71 -87.41,114.93 -154.36,150.26 -54.3,29.01 -121.62,49.84 -201.21,62.11 -79.97,12.28 -210.89,18.6 -392.4,18.6l-450.04 0zm403.18 -325.82l152.49 0c103.03,0 176.3,-13.02 219.07,-38.68 42.78,-25.66 64.35,-68.81 64.35,-129.06 0,-66.58 -19.71,-113.44 -58.77,-139.85 -39.42,-26.41 -111.95,-39.8 -217.95,-39.8l-159.19 0 0 347.39zm1921.81 -225.76c0,-85.92 -23.06,-153.62 -68.81,-203.83 -45.75,-50.21 -108.24,-75.13 -187.09,-75.13 -79.22,0 -141.71,24.92 -187.08,74.76 -45.38,49.47 -68.07,117.91 -68.07,204.2 0,85.54 23.06,153.23 68.81,202.7 45.75,49.47 107.86,74.02 186.34,74.02 78.85,0 141.34,-24.55 187.09,-74.02 45.75,-49.47 68.81,-117.16 68.81,-202.7zm341.06 -548.99l0 1100.57 -356.31 0 0 -178.9c-50.96,76.25 -107.87,132.41 -171.47,167.74 -63.6,35.71 -138.36,53.56 -223.9,53.56 -146.92,0 -264.08,-53.56 -352.23,-160.68 -87.78,-107.11 -131.67,-250.68 -131.67,-431.07 0,-179.28 46.12,-322.1 137.99,-427.73 91.87,-105.63 215.35,-158.45 370.83,-158.45 82.94,0 154.35,17.48 214.23,52.82 59.88,35.33 111.21,89.63 153.98,162.91l0 -180.77 358.55 0zm304.25 1100.57l0 -1688.97 389.05 0 0 1688.97 -389.05 0zm1524.21 -551.58c0,-85.92 -23.06,-153.62 -68.81,-203.83 -45.75,-50.21 -108.24,-75.13 -187.09,-75.13 -79.22,0 -141.71,24.92 -187.08,74.76 -45.38,49.47 -68.07,117.91 -68.07,204.2 0,85.54 23.06,153.23 68.81,202.7 45.75,49.47 107.86,74.02 186.34,74.02 78.85,0 141.34,-24.55 187.09,-74.02 45.75,-49.47 68.81,-117.16 68.81,-202.7zm341.06 -548.99l0 1100.57 -356.31 0 0 -178.9c-50.96,76.25 -107.87,132.41 -171.47,167.74 -63.6,35.71 -138.36,53.56 -223.9,53.56 -146.92,0 -264.08,-53.56 -352.23,-160.68 -87.78,-107.11 -131.67,-250.68 -131.67,-431.07 0,-179.28 46.12,-322.1 137.99,-427.73 91.87,-105.63 215.35,-158.45 370.83,-158.45 82.94,0 154.35,17.48 214.23,52.82 59.88,35.33 111.21,89.63 153.98,162.91l0 -180.77 358.55 0zm284.91 -343.29c0,-58.77 20.83,-108.98 62.49,-150.27 42.02,-41.28 92.24,-62.11 151,-62.11 61,0 111.96,20.46 153.24,61 40.91,40.54 61.37,91.12 61.37,151.38 0,60.25 -20.83,111.58 -62.48,153.61 -42.03,42.02 -92.62,63.23 -152.13,63.23 -58.02,0 -108.23,-21.58 -150.26,-64.35 -42.03,-42.77 -63.23,-93.73 -63.23,-152.49zm19.34 1443.86l0 -1100.57 389.05 0 0 1100.57 -389.05 0z"/>
     <path class="fil1" d="M11041.55 13134.6l0 -1218.1 -357.43 0 0 -377.14 1149.66 0 0 377.14 -357.43 0 0 1218.1 -434.8 0zm1553.96 -692.18c-7.44,-62.48 -31.25,-112.32 -71.42,-150.26 -40.16,-37.57 -90,-56.53 -148.77,-56.53 -63.23,0 -113.44,17.1 -151.01,51.69 -37.19,34.59 -62.11,86.29 -74.76,155.1l445.96 0zm382.35 219.07l-836.86 0c0.74,85.18 22.69,150.64 65.46,196.76 42.77,46.12 103.4,69.18 181.88,69.18 58.76,0 108.6,-11.16 148.77,-33.1 40.54,-22.32 71.04,-55.42 92.24,-98.94l291.97 117.91c-34.96,84.05 -96.7,149.14 -185.22,194.89 -88.52,45.75 -197.13,68.81 -325.82,68.81 -191.92,0 -345.53,-53.19 -461.57,-159.56 -115.68,-106.37 -173.7,-246.97 -173.7,-421.41 0,-171.09 58.02,-313.54 173.7,-426.98 116.04,-113.44 262.58,-169.98 439.63,-169.98 182.25,0 326.19,57.28 431.45,172.21 105.25,114.56 158.07,271.89 158.07,471.62l0 18.59zm224.65 473.11l0 -1688.97 381.23 0 0 1068.95 400.21 -480.55 481.66 0 -495.05 529.64 539.68 570.93 -511.04 0 -415.46 -489.1 0 489.1 -381.23 0zm1455.77 0l0 -1595.24 430.33 0 0 724.53 504.72 -724.53 506.58 0 -589.52 778.09 640.85 817.15 -542.66 0 -519.97 -715.98 0 715.98 -430.33 0zm2372.59 -547.12c0,-82.2 -20.83,-146.92 -62.12,-194.15 -41.28,-47.24 -97.44,-70.67 -167.74,-70.67 -71.41,0 -127.58,23.43 -168.49,70.67 -41.28,47.23 -61.74,111.95 -61.74,194.15 0,82.2 20.46,146.54 61,193.41 40.91,46.86 97.07,70.29 169.23,70.29 71.04,0 127.2,-23.43 168.11,-70.29 41.29,-46.87 61.75,-111.21 61.75,-193.41zm385.7 0c0,79.22 -15.62,154.35 -46.5,225.39 -30.87,71.42 -75.5,135.39 -134.27,191.92 -59.88,56.54 -126.45,99.68 -200.1,128.69 -73.64,29.02 -152.12,43.52 -234.69,43.52 -84.43,0 -163.28,-14.5 -237.3,-43.52 -73.64,-29.01 -139.47,-72.15 -197.5,-128.69 -58.39,-55.04 -102.65,-118.64 -133.15,-190.06 -30.5,-71.78 -45.75,-147.28 -45.75,-227.25 0,-80.71 15.25,-156.59 45.38,-227.63 30.12,-71.41 74.38,-135.38 133.52,-191.92 57.28,-55.79 122.74,-98.19 196.39,-126.46 74.01,-28.26 153.23,-42.4 238.41,-42.4 84.8,0 164.02,14.14 237.3,42.4 73.64,28.27 139.1,70.67 197.49,126.46 59.51,57.28 104.52,121.63 135.02,193.04 30.5,71.04 45.75,146.54 45.75,226.51zm1680.05 547.12l0 -600.31c0,-95.21 -11.91,-161.05 -35.34,-197.5 -23.8,-36.08 -64.34,-54.3 -122.74,-54.3 -72.53,0 -123.11,25.29 -151.38,75.87 -28.26,50.22 -42.4,153.62 -42.4,309.83l0 466.41 -374.91 0 0 -600.31c0,-96.7 -11.53,-162.91 -34.96,-198.24 -23.06,-35.71 -63.98,-53.56 -122,-53.56 -72.53,0 -123.48,24.92 -152.49,74.76 -29.01,49.47 -43.52,153.24 -43.52,310.94l0 466.41 -377.15 0 0 -1100.57 381.61 0 0 191.92c45.75,-77.73 98.57,-135.01 158.45,-171.83 59.88,-36.82 130.55,-55.05 212,-55.05 89.27,0 162.54,17.11 219.45,51.7 56.9,34.59 97.82,86.29 122.74,155.47 42.77,-69.92 95.21,-121.62 156.58,-155.84 61.74,-34.22 134.64,-51.33 217.96,-51.33 66.2,0 124.23,11.16 173.69,33.1 49.84,22.32 91.5,55.42 124.98,99.68 26.77,34.97 45.74,75.88 57.27,122.37 11.16,46.49 16.74,122 16.74,226.51l0 24.18 0 629.69 -384.58 0zm686.23 0l0 -1595.24 332.14 0c247.71,0 423.26,11.53 525.92,34.96 102.65,23.06 193.03,62.11 270.77,116.42 100.79,70.66 177.41,160.67 229.86,270.77 52.44,110.09 78.48,235.81 78.48,376.4 0,140.96 -26.04,266.68 -78.48,376.77 -52.45,110.1 -129.07,200.1 -229.86,270.77 -76.99,53.56 -164.77,91.87 -263.71,114.93 -98.93,22.69 -252.17,34.22 -459.71,34.22l-73.27 0 -332.14 0zm430.33 -357.43l72.9 0c170.72,0 295.69,-34.96 374.17,-105.26 78.48,-69.93 117.53,-181.14 117.53,-334 0,-152.5 -39.05,-264.45 -117.53,-335.49 -78.48,-71.04 -203.45,-106.75 -374.17,-106.75l-72.9 0 0 881.5zm1243.76 -1086.43c0,-58.77 20.83,-108.98 62.49,-150.27 42.02,-41.28 92.24,-62.11 151,-62.11 61,0 111.96,20.46 153.24,61 40.91,40.54 61.37,91.12 61.37,151.38 0,60.25 -20.83,111.58 -62.48,153.61 -42.03,42.02 -92.62,63.23 -152.13,63.23 -58.02,0 -108.23,-21.58 -150.26,-64.35 -42.03,-42.77 -63.23,-93.73 -63.23,-152.49zm19.34 1443.86l0 -1100.57 389.05 0 0 1100.57 -389.05 0zm687.72 0l0 -1688.97 381.23 0 0 1068.95 400.21 -480.55 481.66 0 -495.05 529.64 539.68 570.93 -511.04 0 -415.46 -489.1 0 489.1 -381.23 0z"/>
    </g>
    <path class="fil2" d="M4908.48 14697.53l0 -642.71 133.82 0c99.8,0 170.53,4.64 211.89,14.08 41.36,9.29 77.77,25.03 109.09,46.91 40.61,28.47 71.48,64.73 92.61,109.09 21.13,44.35 31.62,95 31.62,151.65 0,56.79 -10.49,107.44 -31.62,151.8 -21.13,44.35 -52,80.62 -92.61,109.09 -31.02,21.58 -66.38,37.01 -106.24,46.3 -39.86,9.14 -101.6,13.79 -185.22,13.79l-29.52 0 -133.82 0zm173.38 -144.01l29.37 0c68.78,0 119.13,-14.08 150.75,-42.41 31.62,-28.17 47.36,-72.97 47.36,-134.56 0,-61.44 -15.74,-106.55 -47.36,-135.17 -31.62,-28.62 -81.97,-43.01 -150.75,-43.01l-29.37 0 0 355.15zm833.18 -96.2l174.28 0 -65.48 -212.04c-1.95,-6.45 -4.8,-16.79 -8.25,-31.17 -3.59,-14.24 -8.09,-32.67 -13.63,-55.3 -3.75,15.89 -7.49,30.87 -11.24,45.26 -3.6,14.38 -7.34,28.02 -11.09,41.21l-64.59 212.04zm-245.45 240.21l221.78 -642.71 219.53 0 222.08 642.71 -174.28 0 -32.52 -115.09 -248.9 0 -33.42 115.09 -174.27 0zm888.32 0l0 -642.71 393.81 0 0 140.86 -222.98 0 0 111.49 210.24 0 0 137.86 -210.24 0 0 108.49 222.98 0 0 144.01 -393.81 0zm673.14 0l0 -642.71 183.12 0c71.63,0 121.68,3.29 149.85,9.89 28.17,6.59 52.6,17.68 73.13,33.11 23.08,17.54 40.91,40.01 53.35,67.14 12.44,27.27 18.58,57.24 18.58,90.06 0,49.75 -12.14,90.21 -36.56,121.38 -24.43,31.17 -60.1,51.85 -106.85,62.04l175.03 259.09 -197.96 0 -147.45 -251.6 0 251.6 -164.24 0zm164.24 -338.96l32.52 0c37.76,0 65.33,-6.45 82.72,-19.34 17.38,-12.88 26.07,-33.11 26.07,-60.54 0,-32.21 -8.09,-55.14 -24.43,-68.78 -16.18,-13.63 -43.45,-20.38 -81.82,-20.38l-35.06 0 0 169.04zm745.66 98.75l174.28 0 -65.48 -212.04c-1.95,-6.45 -4.8,-16.79 -8.25,-31.17 -3.59,-14.24 -8.09,-32.67 -13.63,-55.3 -3.75,15.89 -7.49,30.87 -11.24,45.26 -3.6,14.38 -7.34,28.02 -11.09,41.21l-64.59 212.04zm-245.45 240.21l221.78 -642.71 219.53 0 222.08 642.71 -174.28 0 -32.52 -115.09 -248.9 0 -33.42 115.09 -174.27 0zm888.32 0l0 -642.71 175.18 0 0 249.8 233.47 0 0 -249.8 175.62 0 0 642.71 -175.62 0 0 -261.64 -233.47 0 0 261.64 -175.18 0zm1170.2 0l0 -642.71 176.97 0 0 642.71 -176.97 0zm510.24 -207.69c26.08,29.52 51.85,51.69 77.18,66.23 25.32,14.69 50.5,22.03 75.67,22.03 23.38,0 42.71,-6.3 57.7,-18.88 15.13,-12.59 22.62,-28.47 22.62,-47.81 0,-21.42 -6.44,-37.91 -19.48,-49.45 -13.03,-11.54 -42.56,-23.52 -88.41,-35.81 -62.94,-16.93 -107.44,-39.11 -133.52,-66.24 -26.07,-27.27 -39.11,-64.58 -39.11,-111.93 0,-61.44 20.53,-111.64 61.74,-150.46 41.06,-38.81 94.41,-58.14 159.89,-58.14 35.52,0 69.08,4.8 100.85,14.24 31.77,9.59 61.74,23.97 90.21,43.3l-54.84 126.03c-19.93,-16.93 -40.31,-29.82 -61.29,-38.51 -20.98,-8.54 -41.66,-12.89 -62.04,-12.89 -21.13,0 -38.21,5.1 -51.4,15.14 -13.19,10.04 -19.78,23.07 -19.78,38.81 0,16.18 5.84,29.07 17.38,38.66 11.54,9.74 33.87,18.88 66.84,27.72l7.94 2.25c71.48,19.18 118.38,40.46 140.86,63.54 15.28,15.88 26.82,34.76 34.76,56.94 7.95,22.03 11.84,46.6 11.84,73.43 0,68.18 -22.33,123.03 -67.13,164.38 -44.81,41.51 -104.45,62.19 -179.07,62.19 -44.81,0 -85.57,-7.64 -122.28,-22.77 -36.72,-15.29 -72.08,-39.12 -106.1,-71.63l78.97 -130.37zm750.01 207.69l0 -490.76 -144.01 0 0 -151.95 463.19 0 0 151.95 -144 0 0 490.76 -175.18 0zm572.59 0l0 -642.71 176.97 0 0 642.71 -176.97 0zm1218.89 0l-163.79 0 -37.76 -277.82c-2.55,-19.64 -4.94,-41.51 -7.19,-65.49 -2.25,-23.98 -4.2,-50.2 -5.99,-78.52 -4.05,27.12 -12.14,61.14 -24.13,101.75 -2.55,8.54 -4.5,14.83 -5.7,18.88l-87.36 301.2 -116.73 0 -87.37 -301.2c-1.2,-4.05 -2.99,-10.34 -5.24,-18.88 -12.29,-40.61 -20.38,-74.48 -24.13,-101.3 -1.8,24.27 -3.89,48.25 -6.14,72.08 -2.4,23.97 -5.25,47.65 -8.39,71.48l-37.77 277.82 -162.88 0 99.2 -642.71 173.38 0 97.1 331.47c0.6,2.25 1.8,6.14 3.45,11.39 9.14,29.52 14.83,54.84 17.23,75.97 1.05,-11.39 3.3,-24.12 6.44,-38.06 3.3,-13.79 7.64,-30.57 13.19,-50.2l98 -330.57 173.83 0 98.75 642.71zm257.9 0l0 -642.71 393.81 0 0 140.86 -222.98 0 0 111.49 210.24 0 0 137.86 -210.24 0 0 108.49 222.98 0 0 144.01 -393.81 0zm1110.86 -642.71l80.77 305.54c3.75,13.79 7.34,28.18 10.49,43.01 3.3,14.99 6.59,32.07 10.19,51.4 4.34,-22.78 8.09,-41.66 11.09,-56.49 3.14,-14.69 6.14,-27.43 8.99,-37.92l75.52 -305.54 176.98 0 -181.77 642.71 -162.44 0 -79.42 -274.38c-3,-9.59 -7.79,-28.47 -14.54,-56.64 -2.84,-12.59 -5.24,-22.33 -7.04,-29.37 -1.35,6.14 -3.45,14.68 -6.14,25.92 -6.75,28.32 -11.84,48.4 -15.29,60.09l-78.22 274.38 -162.89 0 -181.32 -642.71 176.97 0 73.73 307.34c3.6,15.74 7.04,31.62 10.34,47.36 3.45,15.88 6.59,32.06 9.44,48.7 2.7,-12.29 5.55,-25.18 8.54,-38.51 3.15,-13.49 7.64,-32.67 13.94,-57.55l80.77 -307.34 141.31 0zm752.26 402.5l174.28 0 -65.48 -212.04c-1.95,-6.45 -4.8,-16.79 -8.25,-31.17 -3.59,-14.24 -8.09,-32.67 -13.63,-55.3 -3.75,15.89 -7.49,30.87 -11.24,45.26 -3.6,14.38 -7.34,28.02 -11.09,41.21l-64.59 212.04zm-245.45 240.21l221.78 -642.71 219.53 0 222.08 642.71 -174.28 0 -32.52 -115.09 -248.9 0 -33.42 115.09 -174.27 0zm1283.93 0l0 -293.26 -224.78 -349.45 201.1 0 86.47 165.43c0.6,0.9 1.5,2.55 2.69,4.95 9,17.23 15.29,33.71 18.89,49.6 2.84,-14.39 9.14,-30.27 18.88,-47.95 1.65,-3.15 2.84,-5.4 3.44,-6.6l85.57 -165.43 201.55 0 -224.78 349.45 0 293.26 -169.03 0zm1230.29 -320.08c0,46.3 -8.54,89.61 -25.48,129.92 -16.93,40.46 -41.65,76.57 -74.17,108.49 -32.82,31.62 -70.28,55.9 -112.39,73.13 -42.11,17.08 -85.87,25.62 -131.27,25.62 -46.01,0 -89.91,-8.54 -131.87,-25.62 -42.11,-17.23 -78.97,-41.51 -110.89,-73.13 -33.12,-31.92 -58.14,-68.18 -75.38,-108.94 -17.08,-40.61 -25.62,-83.77 -25.62,-129.47 0,-46.01 8.54,-89.16 25.62,-129.77 17.24,-40.46 42.26,-76.73 75.38,-108.65 31.92,-31.62 68.78,-55.89 110.89,-73.12 41.96,-17.09 85.86,-25.63 131.87,-25.63 45.7,0 89.61,8.54 131.87,25.63 42.41,17.23 79.57,41.5 111.79,73.12 32.22,31.62 56.79,67.74 74.02,108.5 17.09,40.61 25.63,83.91 25.63,129.92zm-343.31 188.81c48.55,0 88.71,-17.83 120.48,-53.5 31.77,-35.81 47.65,-80.92 47.65,-135.31 0,-53.8 -16.03,-98.76 -48.25,-134.87 -32.22,-35.96 -72.23,-53.95 -119.88,-53.95 -48.55,0 -88.71,17.99 -120.48,53.8 -31.77,35.82 -47.65,80.92 -47.65,135.02 0,54.99 15.58,100.25 46.9,135.61 31.32,35.52 71.78,53.2 121.23,53.2zm922.04 -105.5l0 -134.71 344.21 0c0.3,4.34 0.6,9.29 0.75,14.53 0.15,5.25 0.15,13.04 0.15,23.23 0,110.74 -29.22,196.61 -87.52,257.6 -58.44,60.98 -140.56,91.55 -246.5,91.55 -52.15,0 -98.45,-7.79 -138.91,-23.52 -40.61,-15.59 -76.88,-39.56 -108.65,-71.78 -30.57,-30.72 -54.09,-67.13 -71.03,-109.09 -16.78,-41.96 -25.17,-86.02 -25.17,-132.02 0,-47.95 8.24,-92.01 24.57,-132.32 16.34,-40.31 40.76,-76.43 73.28,-108.64 32.22,-31.32 69.23,-55 110.89,-71.18 41.66,-16.04 86.62,-24.13 135.02,-24.13 62.94,0 118.53,12.44 166.93,37.31 48.41,24.88 89.17,61.89 122.28,111.04l-151.95 72.83c-18.13,-24.87 -38.51,-43.31 -61.14,-55.44 -22.77,-12.14 -48.1,-18.29 -76.12,-18.29 -52.45,0 -93.66,17.54 -123.78,52.45 -30.12,35.07 -45.25,82.87 -45.25,143.41 0,61.14 15.13,109.39 45.25,144.46 30.12,35.21 71.33,52.75 123.78,52.75 44.36,0 81.52,-10.94 111.19,-32.82 29.67,-21.73 47.05,-50.8 52,-87.22l-174.28 0zm714.35 236.77l0 -293.26 -224.78 -349.45 201.1 0 86.47 165.43c0.6,0.9 1.5,2.55 2.69,4.95 9,17.23 15.29,33.71 18.89,49.6 2.84,-14.39 9.14,-30.27 18.88,-47.95 1.65,-3.15 2.84,-5.4 3.44,-6.6l85.57 -165.43 201.55 0 -224.78 349.45 0 293.26 -169.03 0zm724.08 -240.21l174.28 0 -65.48 -212.04c-1.95,-6.45 -4.8,-16.79 -8.25,-31.17 -3.59,-14.24 -8.09,-32.67 -13.63,-55.3 -3.75,15.89 -7.49,30.87 -11.24,45.26 -3.6,14.38 -7.34,28.02 -11.09,41.21l-64.59 212.04zm-245.45 240.21l221.78 -642.71 219.53 0 222.08 642.71 -174.28 0 -32.52 -115.09 -248.9 0 -33.42 115.09 -174.27 0zm888.32 0l0 -642.71 173.38 0 0 291.91 203.35 -291.91 204.1 0 -237.52 313.49 258.2 329.22 -218.64 0 -209.49 -288.46 0 288.46 -173.38 0zm969.69 -240.21l174.28 0 -65.48 -212.04c-1.95,-6.45 -4.8,-16.79 -8.25,-31.17 -3.59,-14.24 -8.09,-32.67 -13.63,-55.3 -3.75,15.89 -7.49,30.87 -11.24,45.26 -3.6,14.38 -7.34,28.02 -11.09,41.21l-64.59 212.04zm-245.45 240.21l221.78 -642.71 219.53 0 222.08 642.71 -174.28 0 -32.52 -115.09 -248.9 0 -33.42 115.09 -174.27 0zm888.32 0l0 -642.71 183.12 0c71.63,0 121.68,3.29 149.85,9.89 28.17,6.59 52.6,17.68 73.13,33.11 23.08,17.54 40.91,40.01 53.35,67.14 12.44,27.27 18.58,57.24 18.58,90.06 0,49.75 -12.14,90.21 -36.56,121.38 -24.43,31.17 -60.1,51.85 -106.85,62.04l175.03 259.09 -197.96 0 -147.45 -251.6 0 251.6 -164.24 0zm164.24 -338.96l32.52 0c37.76,0 65.33,-6.45 82.72,-19.34 17.38,-12.88 26.07,-33.11 26.07,-60.54 0,-32.21 -8.09,-55.14 -24.43,-68.78 -16.18,-13.63 -43.45,-20.38 -81.82,-20.38l-35.06 0 0 169.04zm668.34 338.96l0 -490.76 -144.01 0 0 -151.95 463.19 0 0 151.95 -144 0 0 490.76 -175.18 0zm701.76 -240.21l174.28 0 -65.48 -212.04c-1.95,-6.45 -4.8,-16.79 -8.25,-31.17 -3.59,-14.24 -8.09,-32.67 -13.63,-55.3 -3.75,15.89 -7.49,30.87 -11.24,45.26 -3.6,14.38 -7.34,28.02 -11.09,41.21l-64.59 212.04zm-245.45 240.21l221.78 -642.71 219.53 0 222.08 642.71 -174.28 0 -32.52 -115.09 -248.9 0 -33.42 115.09 -174.27 0z"/>
   </g>
   <g>
    <path class="fil3" d="M10515.21 5742.45c1439.91,323.92 2550.94,976.72 3336.61,1954.9 22.63,-926.9 328.26,-1682.25 780.68,-2354.3 -547.65,-502.95 -1167.59,-879.41 -1881.77,-1090.94l-2235.52 1490.34z"/>
    <path class="fil4 str0" d="M14726.82 5359.43c134.88,-167.16 287.82,-314.71 459.51,-432.35l2708.3 -1070.53c-985.9,760.38 -1800.6,1809.72 -2104.29,2776.1 -297.86,-473.53 -661.84,-904.74 -1063.52,-1273.22z"/>
    <path class="fil5" d="M15766.91 6710.3l-1834.63 1087.5c-33.28,-616.54 202.81,-1675.62 761.96,-2397.19 393.49,371.9 749.36,809.63 1075.94,1298.62l-3.27 11.07z"/>
    <path class="fil6" d="M14035.11 4541.4l1255.51 0c-202.92,104.68 -400.91,225.55 -586.96,367.3l-19.91 0c-205.57,-125.23 -423.23,-248.92 -648.64,-367.3zm3322.06 163.37c91.2,95.1 147.44,224.16 147.44,365.86l0 3320.53c0,145.74 -59.5,278.1 -155.32,373.91 -95.83,95.83 -228.19,155.32 -373.93,155.32l-5421.07 0c-145.75,0 -278.11,-59.49 -373.91,-155.32 -95.83,-95.81 -155.32,-228.19 -155.32,-373.91l0 -2268.76c1424.51,447.55 2289.61,1401.19 2863.69,2049.96l2096.67 -1198.3c414.07,-1066.1 725.11,-1558.55 1371.75,-2269.29z"/>
    <path class="fil7" d="M14264.83 9258.38c592.3,0 1122.84,189.05 1480.37,487.36l-2960.74 0c357.53,-298.31 888.07,-487.36 1480.37,-487.36z"/>
   </g>
  </g>
 </g>
</svg>
